<?xml version="1.0" encoding="utf-8"?>
<!-- Generator: Adobe Illustrator 24.3.0, SVG Export Plug-In . SVG Version: 6.00 Build 0)  -->
<svg version="1.1" id="Footer_x5F_FB" xmlns="http://www.w3.org/2000/svg" xmlns:xlink="http://www.w3.org/1999/xlink" x="0px"
	 y="0px" viewBox="0 0 25.7 25.7" style="enable-background:new 0 0 25.7 25.7;" xml:space="preserve">
<style type="text/css">
	.st0{fill:#FFFBE8;}
	.st1{fill:none;}
</style>
<path id="Initiator" class="st0" d="M25.7,12.8C25.7,5.7,19.9,0,12.8,0S0,5.7,0,12.8c0,5.9,4,11,9.7,12.4v-8.5H7.1v-3.9h2.6v-1.7
	c0-4.4,2-6.4,6.3-6.4c0.9,0,1.9,0.1,2.8,0.3v3.5c-0.3,0-0.8,0-1.5,0c-2.1,0-2.9,0.8-2.9,2.9v1.4h4.2l-0.7,3.9h-3.5v8.8
	C20.8,24.8,25.7,19.3,25.7,12.8z"/>
<path id="F" class="st1" d="M17.9,16.8l0.7-3.9h-4.2v-1.4c0-2.1,0.8-2.9,2.9-2.9c0.6,0,1.2,0,1.5,0V5.1c-0.9-0.2-1.8-0.3-2.8-0.3
	c-4.3,0-6.3,2-6.3,6.4v1.7H7.1v3.9h2.6v8.5c1,0.3,2.1,0.4,3.1,0.4c0.5,0,1,0,1.6-0.1v-8.8H17.9z"/>
</svg>
