<svg width="75" height="26" viewBox="0 0 75 26" fill="none" xmlns="http://www.w3.org/2000/svg">
<path d="M10.2829 11.525L7.88288 9.125C7.68288 8.925 7.88295 8.7251 8.08295 8.7251H12.9829C13.1829 8.7251 13.2829 9.025 13.1829 9.125L10.7829 11.525C10.5829 11.625 10.3829 11.625 10.2829 11.525Z" fill="#FFFBE8"/>
<path d="M18.1828 11.525L15.7828 9.125C15.5828 8.925 15.7828 8.7251 15.9828 8.7251H20.8828C21.0828 8.7251 21.1829 9.025 21.0829 9.125L18.6828 11.525C18.4828 11.625 18.2828 11.625 18.1828 11.525Z" fill="#FFFBE8"/>
<path d="M2.48276 11.525L0.0828528 9.125C-0.117147 8.925 0.082804 8.7251 0.282804 8.7251H5.18283C5.38283 8.7251 5.48278 9.025 5.38278 9.125L2.98276 11.525C2.68276 11.625 2.58276 11.625 2.48276 11.525Z" fill="#FFFBE8"/>
<path d="M64.2827 11.525L66.6828 9.125C66.8828 8.925 66.6827 8.7251 66.4827 8.7251H61.5828C61.3828 8.7251 61.2827 9.025 61.3827 9.125L63.7827 11.525C63.9827 11.625 64.1827 11.625 64.2827 11.525Z" fill="#FFFBE8"/>
<path d="M56.3828 11.525L58.7829 9.125C58.9829 8.925 58.7829 8.7251 58.5829 8.7251H53.6829C53.4829 8.7251 53.3828 9.025 53.4828 9.125L55.8828 11.525C56.0828 11.625 56.2828 11.625 56.3828 11.525Z" fill="#FFFBE8"/>
<path d="M72.0831 11.525L74.483 9.125C74.683 8.925 74.483 8.7251 74.283 8.7251H69.383C69.183 8.7251 69.083 9.025 69.183 9.125L71.5831 11.525C71.8831 11.625 71.9831 11.625 72.0831 11.525Z" fill="#FFFBE8"/>
<path d="M30.3829 6.62493L36.1829 0.825C36.7829 0.225 37.6829 0.225 38.2829 0.825L44.0829 6.62493C44.6829 7.22493 44.6829 8.12502 44.0829 8.72502L38.2829 14.525C37.6829 15.125 36.7829 15.125 36.1829 14.525L30.3829 8.72502C29.7829 8.12502 29.7829 7.22493 30.3829 6.62493Z" stroke="#FFFBE8" stroke-width="0.75" stroke-miterlimit="10" stroke-linecap="round" stroke-linejoin="round"/>
<path d="M44.583 13.3252L38.4829 19.4252C37.8829 20.0252 36.883 20.0252 36.183 19.4252L30.083 13.3252" stroke="#FFFBE8" stroke-width="0.75" stroke-miterlimit="10" stroke-linecap="round" stroke-linejoin="round"/>
<path d="M36.8827 10.9248V8.02478H34.0828V7.22485H36.8827V4.4248H37.6827V7.22485H40.4827V8.02478H37.6827V10.9248H36.8827Z" fill="#FFFBE8"/>
<path d="M44.5828 18.2251L38.4827 24.3251C37.8827 24.9251 36.8827 24.9251 36.1827 24.3251L30.0828 18.2251" stroke="#FFFBE8" stroke-width="0.75" stroke-miterlimit="10" stroke-linecap="round" stroke-linejoin="round"/>
</svg>
