<?xml version="1.0" encoding="utf-8"?>
<!-- Generator: Adobe Illustrator 24.3.0, SVG Export Plug-In . SVG Version: 6.00 Build 0)  -->
<svg version="1.1" id="Navi_x5F_Sean_x5F_Default" xmlns="http://www.w3.org/2000/svg" xmlns:xlink="http://www.w3.org/1999/xlink"
	 x="0px" y="0px" viewBox="0 0 30.7 22.5" style="enable-background:new 0 0 30.7 22.5;" xml:space="preserve">
<style type="text/css">
	.st0{fill:#E8804D;}
</style>
<g id="Sean_Icon">
	<path class="st0" d="M22.5,9.1c-1.2,0-1.5,0.4-3.2,0.4S16.8,8.7,15.5,8c0-1.1-0.1-2.1-0.4-3.1c-0.6-1.7-1.1-2.3-1.8-2.3
		c-1.2,0-2.6,2.2-2.9,3.2c0-0.8-0.1-1.5-0.6-1.5s-1.4,1-1.9,2.2C7.6,5.9,7.3,5.5,7.1,5.6C6.4,5.9,5.8,7.8,5.8,8.2
		C4.3,7.4,2.6,7.1,0.9,7.3c-1.1,0.1-1.1,1-0.7,2c0.5,1.3,1.3,2.4,2.2,3.4c-0.5,1.7-0.9,4.8-0.2,6.5c0.5,1.1,2.3,2.5,4.8,3.1l0,0
		l1.7,0.2c-0.8-0.3-1.5-0.7-2.1-1.2c-0.8-0.6-1.2-1.6-1.2-2.5c0-2.3,3.3-2.2,2.3-6c-0.3-1-0.4-2.1-0.3-3.1c0.4-2.2,4-2,6-1
		c1.1,0.6,0.8,1,0.8,1.6c0,0.5,0.1,1.1,0.4,1.5h0.1h0.1c0.4-0.1,0.8-0.1,1.2-0.1c1.5,0,2.9,1.1,3.4,1.1s1-0.7,1.5-1s1.4-0.4,1.4-0.1
		c0,0.1-0.7,2.1-1.1,2.2c-0.5,0-1.1-0.1-1.5-0.4c-0.8-0.4-1.5-0.8-2.3-1.1c-0.7-0.2-1.4-0.3-2.1-0.3c-2.1,0.1-2.9,1.9-2.8,3.8
		s1.5,4,3.5,4.2c0.3,0.1,0.6,0.1,0.9,0l0.7-0.5c-0.6,0.3-1.4,0.3-2,0c-1.8-0.8-2.7-2.8-2.3-4.7c0.1-0.7,0.7-1.2,1.4-1.2
		c1.7,0.1,3.2,1.3,3.7,2.9c0.3,0.8,0.3,1.6,0.1,2.3c1.1-1,2-2.2,2.7-3.6c0-0.1,0.1-0.2,0.1-0.3l0,0c0.8-1.5,1.5-3.1,1.9-4.8
		C23.6,9.5,23.4,9.1,22.5,9.1z M2.8,12c-0.1,0.1-0.1,0.2-0.1,0.3c-1.9-2.1-2.5-3.7-2.1-4.1C1.2,7.5,3,8,4.7,9.5
		C3.9,10.2,3.3,11.1,2.8,12z M11.8,7.1c-1.1,0-2.2,0.1-3.3,0.4C7.8,7.6,7.1,7.9,6.5,8.2C6.6,7.6,7,6.5,7.3,6.4s0.4,0.6,0.6,0.8
		C8.7,5.7,9.4,5,9.7,5s0.4,1.2,0.4,1.8C10.5,6.3,11,6,11.6,6C12,5.9,11.8,6.6,11.8,7.1L11.8,7.1z M22.5,11.2c-0.5-0.1-1.4-0.7-1.4-1
		S22.8,9,23,9.6S22.8,11.2,22.5,11.2L22.5,11.2z"/>
	<path class="st0" d="M8.8,22.5c-0.6,0-1.1-0.1-1.7-0.2L8.8,22.5z"/>
	<path class="st0" d="M11.8,9.8c-0.4-0.3-0.8-0.4-1.3-0.4c0,0-0.1,0-0.1-0.1s0-0.1,0.1-0.1l0,0c0.3-0.1,0.7-0.2,1-0.2
		c0.7,0,1.4,0.3,1.9,0.7c0.1,0.1,0.1,0.2,0,0.2c0,0-0.1,0.1-0.1,0.1c-1,0.3-2,0.9-2.8,1.6c0,0-0.1,0-0.1,0c0,0,0-0.1,0-0.1
		C10.7,10.8,11.2,10.2,11.8,9.8z"/>
	<path class="st0" d="M15.4,21.1c-0.8,0.4-1.6,0.7-2.4,0.9l0,0c-3.2,0.4-5.2-2.3-4.2-6.5c0.4-1.7,2.3-3.5,3.9-3.2
		c-0.6,0.5-1,1.2-1.2,1.9c-0.6,1.8-0.3,4.7,1,5.8C13.3,20.7,14.3,21.1,15.4,21.1z"/>
</g>
</svg>
