<?xml version="1.0" encoding="utf-8"?>
<!-- Generator: Adobe Illustrator 24.3.0, SVG Export Plug-In . SVG Version: 6.00 Build 0)  -->
<svg version="1.1" id="Arrow_3" xmlns="http://www.w3.org/2000/svg" xmlns:xlink="http://www.w3.org/1999/xlink" x="0px" y="0px"
	 viewBox="0 0 26.5 23.1" style="enable-background:new 0 0 26.5 23.1;" xml:space="preserve">
<style type="text/css">
	.st0{fill:#54CCC9;}
</style>
<path class="st0" d="M26.3,12.3c0.1-0.2,0.1-0.3,0.1-0.5c0,0,0,0,0,0c0,0,0,0,0-0.1c0-0.1,0-0.1,0-0.2c0-0.1,0-0.1,0-0.2
	c0-0.1,0-0.1,0-0.2c0-0.1,0-0.1,0-0.2c0,0,0-0.1-0.1-0.1c0-0.1-0.1-0.1-0.1-0.2c0,0,0-0.1-0.1-0.1c0-0.1-0.1-0.1-0.1-0.2
	c0,0,0,0,0,0l-9.9-9.9c-0.7-0.7-1.7-0.7-2.4,0c-0.7,0.7-0.7,1.7,0,2.4l7,7H1.8c-0.1,0-0.2,0-0.3,0C0.6,9.9-0.1,10.8,0,11.7
	c0.1,0.9,0.9,1.6,1.8,1.6h18.8l-7,7c-0.3,0.3-0.5,0.7-0.5,1.2c0,0.9,0.8,1.7,1.7,1.7c0.5,0,0.9-0.2,1.2-0.5l9.9-9.9c0,0,0,0,0,0
	C26.1,12.6,26.2,12.5,26.3,12.3C26.3,12.3,26.3,12.3,26.3,12.3z"/>
</svg>
