<?xml version="1.0" encoding="utf-8"?>
<!-- Generator: Adobe Illustrator 24.3.0, SVG Export Plug-In . SVG Version: 6.00 Build 0)  -->
<svg version="1.1" id="Directory_x5F_FB" xmlns="http://www.w3.org/2000/svg" xmlns:xlink="http://www.w3.org/1999/xlink" x="0px"
	 y="0px" viewBox="0 0 43.6 43.6" style="enable-background:new 0 0 43.6 43.6;" xml:space="preserve">
<style type="text/css">
	.st0{fill:#373F52;}
	.st1{fill:none;}
</style>
<path id="Initiator" class="st0" d="M43.6,21.8C43.6,9.8,33.9,0,21.8,0S0,9.8,0,21.8c0,10,6.8,18.7,16.5,21.2V28.5H12v-6.7h4.5V19
	c0-7.4,3.4-10.9,10.6-10.9c1.6,0,3.2,0.2,4.8,0.5v6.1c-0.5-0.1-1.4-0.1-2.5-0.1c-3.6,0-5,1.4-5,4.9v2.4h7.1l-1.2,6.7h-5.9v15
	C35.4,42.1,43.7,32.8,43.6,21.8z"/>
<path id="F" class="st1" d="M30.4,28.5l1.2-6.7h-7.1v-2.4c0-3.5,1.4-4.9,5-4.9c1.1,0,2,0,2.5,0.1v-6c-1.6-0.3-3.2-0.5-4.8-0.5
	C20,8.1,16.6,11.5,16.6,19v2.9h-4.5v6.7h4.5V43c1.7,0.4,3.5,0.6,5.3,0.6c0.9,0,1.8-0.1,2.6-0.2v-15L30.4,28.5z"/>
</svg>
