<?xml version="1.0" encoding="utf-8"?>
<!-- Generator: Adobe Illustrator 24.3.0, SVG Export Plug-In . SVG Version: 6.00 Build 0)  -->
<svg version="1.1" id="Arrow_1" xmlns="http://www.w3.org/2000/svg" xmlns:xlink="http://www.w3.org/1999/xlink" x="0px" y="0px"
	 viewBox="0 0 19.7 19.7" style="enable-background:new 0 0 19.7 19.7;" xml:space="preserve">
<style type="text/css">
	.st0{fill:#54CCC9;}
</style>
<path class="st0" d="M18.5,19.7c0.1,0,0.1,0,0.2-0.1c0.1,0,0.1-0.1,0.1-0.1c0,0,0.1,0,0.1-0.1c0.4-0.3,0.7-0.7,0.7-1.2
	c0-0.1,0-0.2,0-0.3c0,0,0,0,0,0V4.1c-0.1-0.8-0.7-1.5-1.6-1.6c-0.9-0.1-1.8,0.6-1.8,1.6v9.8L2.9,0.5c-0.7-0.7-1.7-0.7-2.4,0
	c-0.7,0.7-0.7,1.7,0,2.4l13.4,13.4H4c-0.1,0-0.2,0-0.3,0c-0.9,0.1-1.6,0.9-1.6,1.8c0.1,0.9,0.9,1.6,1.8,1.6h14c0,0,0,0,0.1,0
	c0,0,0.1,0,0.1,0c0.1,0,0.1,0,0.2,0C18.4,19.7,18.5,19.7,18.5,19.7z"/>
</svg>
