<?xml version="1.0" encoding="utf-8"?>
<!-- Generator: Adobe Illustrator 24.3.0, SVG Export Plug-In . SVG Version: 6.00 Build 0)  -->
<svg version="1.1" id="Arrow_2" xmlns="http://www.w3.org/2000/svg" xmlns:xlink="http://www.w3.org/1999/xlink" x="0px" y="0px"
	 viewBox="0 0 19.7 19.7" style="enable-background:new 0 0 19.7 19.7;" xml:space="preserve">
<style type="text/css">
	.st0{fill:#54CCC9;}
</style>
<path class="st0" d="M19.2,0.5C18.9,0.2,18.5,0,18,0c0,0,0,0,0,0H4.1C4,0,3.9,0,3.8,0C2.9,0.1,2.2,0.9,2.2,1.8
	c0.1,0.9,0.9,1.6,1.8,1.6h9.8L0.5,16.8c0,0,0,0,0,0c-0.7,0.7-0.7,1.7,0,2.4c0.3,0.3,0.8,0.5,1.2,0.5c0.5,0,0.9-0.2,1.2-0.5L16.3,5.8
	v9.8c0,0,0,0,0,0c0,0.9,0.8,1.7,1.7,1.7c0.9,0,1.7-0.7,1.7-1.7V2C19.8,1.5,19.6,0.9,19.2,0.5z"/>
</svg>
